<svg width="200" height="50" xmlns="http://www.w3.org/2000/svg"><path d="M86.896 30.224c0 .608-.212 1.12-.636 1.536a2.1 2.1 0 0 1-1.524.624H65.872V14.696h18.096v-.552h1.896v7.848c0 .592-.212 1.1-.636 1.524a2.079 2.079 0 0 1-1.524.636h-15.96v6.36h16.992c.176 0 .264-.096.264-.288v-1.896h1.896v1.896zm-2.928-13.632h-7.176v5.664h6.912c.176 0 .264-.088.264-.264v-5.4zm-16.224 0v5.664h7.176v-5.664h-7.176zm43.152 13.632c0 .608-.212 1.12-.636 1.536a2.1 2.1 0 0 1-1.524.624H89.872V14.696h18.096v-.552h1.896v7.848c0 .592-.212 1.1-.636 1.524a2.079 2.079 0 0 1-1.524.636h-15.96v6.36h16.992c.176 0 .264-.096.264-.288v-1.896h1.896v1.896zm-2.928-13.632h-7.176v5.664h6.912c.176 0 .264-.088.264-.264v-5.4zm-16.224 0v5.664h7.176v-5.664h-7.176zm33.168 7.704h9.336v1.896h-5.304l5.112 4.824-1.296 1.368-5.688-5.376.768-.816h-2.928v6.312h-1.872v-6.312h-2.184c-.192.336-.46.756-.804 1.26-.344.504-.776 1.04-1.296 1.608-.52.568-1.14 1.152-1.86 1.752-.72.6-1.544 1.172-2.472 1.716l-.936-1.632c1.312-.768 2.38-1.58 3.204-2.436.824-.856 1.468-1.612 1.932-2.268h-4.92v-1.896h9.336v-1.104h-7.536v-8.664h15.048V14h1.896v7.032c0 .608-.212 1.12-.636 1.536a2.1 2.1 0 0 1-1.524.624h-5.376v1.104zm5.376-3c.176 0 .264-.088.264-.264v-1.176h-5.64v1.44h5.376zm.264-4.872h-5.64v1.536h5.64v-1.536zm-13.152 0v1.536h5.64v-1.536h-5.64zm5.64 4.872v-1.44h-5.64v1.44h5.64z" fill="#999" fill-rule="evenodd"/></svg>