<svg width="200" height="50" xmlns="http://www.w3.org/2000/svg"><path d="M50.608 30.536v1.896H29.272v-1.896h1.608V25.76h16.152v-.264h1.896v5.04h1.68zm-3.576 0v-2.88h-3.36v2.88h3.36zm-5.256 0v-2.88h-3.672v2.88h3.672zm-9.024-2.88v2.88h3.456v-2.88h-3.456zm17.04-4.824v1.896H30.088v-1.896h8.904v-1.344h-7.368v-1.896h7.368v-1.44h-8.28V16.28h4.272l-1.104-1.2 1.368-1.296 2.016 2.16-.336.336h5.784l2.28-2.544 1.392 1.272-1.128 1.272h3.912v1.872h-8.28v1.44h7.368v1.896h-7.368v1.344h8.904zm6.84-3.144c0 .032-.028.232-.084.6-.056.368-.144.824-.264 1.368-.12.544-.276 1.14-.468 1.788a12.103 12.103 0 0 1-.72 1.86l-1.704-.816a13.3 13.3 0 0 0 .624-1.668 24.623 24.623 0 0 0 .768-3.372l1.848.24zm5.88-.36l1.344 4.848-1.824.504-1.344-4.848 1.824-.504zm6.912-.024l1.44 4.872-1.824.528-1.44-4.848 1.824-.552zm-2.952 12.528h-1.896V14.264h1.896v17.568zm7.152.672h-1.896V13.88h1.896v18.624zm-17.808-.096l-1.488-1.152.252-.36c.168-.24.372-.564.612-.972.24-.408.504-.892.792-1.452.288-.56.552-1.172.792-1.836.24-.664.44-1.368.6-2.112.16-.744.24-1.508.24-2.292v-8.424h1.872v8.424c0 .88-.088 1.74-.264 2.58A18.36 18.36 0 0 1 57.7 29.24a25.17 25.17 0 0 1-.876 1.62c-.272.456-.504.82-.696 1.092a8.756 8.756 0 0 0-.312.456zm22.128-.984l-.528-.768.312-.252c.208-.168.472-.408.792-.72a13.263 13.263 0 0 0 2.136-2.796 12.66 12.66 0 0 0 .936-2.04c.272-.752.456-1.576.552-2.472V18.8h1.896v3.696l-.024.048a12.651 12.651 0 0 1-.696 3.072l1.224-.888 3.048 4.2-1.512 1.104-2.904-3.984c-.4.992-.86 1.864-1.38 2.616a17.49 17.49 0 0 1-1.5 1.908c-.48.52-.892.916-1.236 1.188-.344.272-.532.424-.564.456l-.552-.792zm15.024-8.904a8.412 8.412 0 0 1-.192 1.272c-.096.416-.208.824-.336 1.224l.864-.6 4.632 6.72-1.56 1.056-4.296-6.24c-.4.928-.864 1.776-1.392 2.544a23.755 23.755 0 0 1-1.512 1.992c-.48.56-.892 1.004-1.236 1.332-.344.328-.54.508-.588.54l-.6-.744-.624-.72.348-.312c.232-.208.516-.496.852-.864.336-.368.708-.812 1.116-1.332.408-.52.796-1.092 1.164-1.716a13.01 13.01 0 0 0 .96-2.016c.272-.72.448-1.472.528-2.256v-3.6h1.872v3.72zm1.008-6.552H83.44v-1.896h11.544l3.72 5.592-1.584 1.032-3.144-4.728zM78.256 20.6l-.696-.624.432-.504c.288-.336.628-.776 1.02-1.32s.808-1.176 1.248-1.896c.44-.72.82-1.464 1.14-2.232l1.752.696c-.352.864-.76 1.684-1.224 2.46-.464.776-.912 1.46-1.344 2.052a22.418 22.418 0 0 1-1.632 2.016l-.696-.648zm34.848-2.496v.36h8.304v1.8h-2.616l.36.312-.288.336h3.456v1.8h-20.304v-1.8h3.624l-.288-.336.36-.312h-2.88v-1.8h8.4v-.36h-6.96v-1.176c-.512.272-.948.488-1.308.648-.36.16-.556.248-.588.264l-.672-1.776.42-.18c.28-.12.616-.28 1.008-.48.392-.2.8-.44 1.224-.72a5.69 5.69 0 0 0 1.092-.924l1.392 1.272a7.468 7.468 0 0 1-1.56 1.272h13.968l-.768-.504h-10.992v-1.896h11.568l3.336 2.28-1.056 1.56-1.344-.936v1.296h-6.888zm-1.872 2.16h-3.648l.552.648h3.096v-.648zm1.872 0v.648h3.264l.552-.648h-3.816zm5.352 7.224v.312h3.792v1.8h-1.344l.648.384-.384.696h1.536v1.8h-10.392v-1.8h1.32l-.408-.792.576-.288h-1.176v-1.8h3.96v-.312h-3.432v-1.296l-.456-.48-.552-.552-.984.84v1.32h-3.432v.384h3.864v1.8h-1.584l.792.528-.192.264 1.344-.048.072 1.8-10.392.432-.072-1.8 1.56-.072-.408-.672.72-.432h-1.464v-1.8h3.864v-.384H102.4v-1.128l-.432-.48-.672-.672c.224-.208.44-.44.648-.696.176-.208.364-.448.564-.72.2-.272.372-.544.516-.816l1.224.672v-.432h6.168l1.68 1.92c.064-.064.164-.168.3-.312.136-.144.284-.312.444-.504.16-.192.32-.404.48-.636.16-.232.304-.468.432-.708l1.248.672v-.432h6.144l1.8 2.064-1.056.888v1.488h-3.432zm-12.624 2.016h-1.176l.624 1.008h.552v-1.008zm1.896 0v.912l.528-.024.624-.888h-1.152zm2.352-3.984l-.528-.6h-5.304v-.504a5.205 5.205 0 0 1-.42.588c-.152.184-.292.356-.42.516h6.672zm6.504 4.08h-1.368l.528 1.08h.84V29.6zm1.872 0v1.08h.528l.624-1.08h-1.152zm2.496-3.912l-.672-.768H115v-.504c-.352.512-.688.936-1.008 1.272h6.96zm15.96-1.392h9.336v1.896h-5.304l5.112 4.824-1.296 1.368-5.688-5.376.768-.816h-2.928v6.312h-1.872v-6.312h-2.184c-.192.336-.46.756-.804 1.26-.344.504-.776 1.04-1.296 1.608-.52.568-1.14 1.152-1.86 1.752-.72.6-1.544 1.172-2.472 1.716l-.936-1.632c1.312-.768 2.38-1.58 3.204-2.436.824-.856 1.468-1.612 1.932-2.268h-4.92v-1.896h9.336v-1.104h-7.536v-8.664h15.048V14h1.896v7.032c0 .608-.212 1.12-.636 1.536a2.1 2.1 0 0 1-1.524.624h-5.376v1.104zm5.376-3c.176 0 .264-.088.264-.264v-1.176h-5.64v1.44h5.376zm.264-4.872h-5.64v1.536h5.64v-1.536zm-13.152 0v1.536h5.64v-1.536h-5.64zm5.64 4.872v-1.44h-5.64v1.44h5.64zm19.56 4.8l-1.776.624-3.024-8.64 1.776-.624 3.024 8.64zm15.792-7.992l-2.952 8.616-1.776-.624 2.928-8.592 1.8.6zm-5.904 12.456h6.288v1.872h-21.432V30.56h6.48V13.928h1.896V30.56h4.872V13.928h1.896V30.56z" fill="#999" fill-rule="evenodd"/></svg>