<svg width="200" height="50" xmlns="http://www.w3.org/2000/svg"><path d="M76.912 24.296h9.336v1.896h-5.304l5.112 4.824-1.296 1.368-5.688-5.376.768-.816h-2.928v6.312H75.04v-6.312h-2.184c-.192.336-.46.756-.804 1.26-.344.504-.776 1.04-1.296 1.608-.52.568-1.14 1.152-1.86 1.752-.72.6-1.544 1.172-2.472 1.716l-.936-1.632c1.312-.768 2.38-1.58 3.204-2.436.824-.856 1.468-1.612 1.932-2.268h-4.92v-1.896h9.336v-1.104h-7.536v-8.664h15.048V14h1.896v7.032c0 .608-.212 1.12-.636 1.536a2.1 2.1 0 0 1-1.524.624h-5.376v1.104zm5.376-3c.176 0 .264-.088.264-.264v-1.176h-5.64v1.44h5.376zm.264-4.872h-5.64v1.536h5.64v-1.536zm-13.152 0v1.536h5.64v-1.536H69.4zm5.64 4.872v-1.44H69.4v1.44h5.64zm15.408 11.112l-.912-1.656 1.056-.576V14.744h11.856c.928 0 1.784-.04 2.568-.12.784-.08 1.456-.172 2.016-.276.56-.104 1-.2 1.32-.288l.48-.132.552 1.8c-.016 0-.132.032-.348.096-.216.064-.512.136-.888.216-.376.08-.828.164-1.356.252-.528.088-1.12.164-1.776.228v4.872h4.536v1.896h-4.44c.096.832.248 1.592.456 2.28.208.688.44 1.304.696 1.848.256.544.516 1.012.78 1.404.264.392.5.708.708.948l1.416-1.464 1.344 1.32-2.712 2.808-.672-.576a212.18 212.18 0 0 1-.588-.6c-.36-.368-.76-.904-1.2-1.608-.44-.704-.868-1.584-1.284-2.64-.416-1.056-.696-2.296-.84-3.72H92.464v5.856l5.784-3.096.888 1.656-8.688 4.704zm2.016-15.768v4.752h10.656V16.64H92.464zm27-2.184c0 .032-.04.152-.12.36-.08.208-.196.484-.348.828-.152.344-.34.74-.564 1.188-.224.448-.488.92-.792 1.416v14.256h-1.872V20.912a16.16 16.16 0 0 1-1.704 1.776l-1.272-1.392a14.77 14.77 0 0 0 2.172-2.436 24.607 24.607 0 0 0 1.524-2.412c.4-.736.7-1.352.9-1.848l.3-.744 1.776.6zm15.408 14.76l-1.536 3.216-.768-.216c-.016 0-.144-.044-.384-.132-.24-.088-.548-.224-.924-.408a13.736 13.736 0 0 1-1.284-.732c-.48-.304-.968-.672-1.464-1.104a10.954 10.954 0 0 1-1.248-1.26 10.64 10.64 0 0 1-1.164-1.692c-.36-.64-.676-1.36-.948-2.16a12.81 12.81 0 0 1-.576-2.664l-5.352.696-.264-1.872 5.52-.72v-6.096h1.896v5.856l7.92-1.056.264 1.872-8.112 1.08c.288 2.72 1.392 4.92 3.312 6.6.496.432.972.784 1.428 1.056.456.272.844.48 1.164.624l.84-1.704 1.68.816zm-3.408-10.776l-3.528-2.952 1.224-1.44L132.688 17l-1.224 1.44z" fill="#999" fill-rule="evenodd"/></svg>