<svg width="200" height="50" xmlns="http://www.w3.org/2000/svg"><path d="M72.256 14.024h1.896v16.104c0 .608-.212 1.12-.636 1.536a2.1 2.1 0 0 1-1.524.624H53.704V14.456h18.552v-.432zm0 2.328H55.6v14.064h16.392c.176 0 .264-.096.264-.288V16.352zm-9.312 4.536H57.04v-1.896h5.904v-1.92h1.872v1.92h6v1.896h-6v1.776h3v-.528h1.872v5.208c0 .608-.208 1.12-.624 1.536-.416.416-.928.624-1.536.624h-9.36v-6.84h4.776v-1.776zm4.872 3.648H60.04v3.096h7.488c.08 0 .148-.028.204-.084a.278.278 0 0 0 .084-.204v-2.808zm24.528 5.592h-4.416v-1.896h4.416v-3.936H88.72v-1.872h3.624v-3.288h-4.2V17.24h1.872l-1.176-2.328 1.68-.84 1.368 2.712-.912.456h3.504l1.56-3.168 1.68.84-1.152 2.328h1.824v1.896h-4.176v3.288h3.624v1.872h-3.624v3.936h4.416v1.896h-4.416v2.304h-1.872v-2.304zM80.08 17.336a58.37 58.37 0 0 1-.696 1.02c-.24.344-.488.676-.744.996l-1.488-1.176c.352-.432.704-.908 1.056-1.428.352-.52.664-1.008.936-1.464.272-.456.496-.836.672-1.14l.264-.456 1.656.888-.144.276c-.08.152-.192.348-.336.588h5.808v1.824l-2.16 2.232h.672v-.336h1.896v7.896c0 .608-.212 1.12-.636 1.536a2.1 2.1 0 0 1-1.524.624h-7.104v-9.72h4.08l2.088-2.16H80.08zm.024 4.056v1.56h1.8v-1.56h-1.8zm0 5.952h1.8v-2.52h-1.8v2.52zm5.208 0c.176 0 .264-.096.264-.288v-2.232h-1.8v2.52h1.536zm.264-5.952h-1.8v1.56h1.8v-1.56zm-7.872 9.192l9.816-1.2.24 1.872-9.816 1.2-.24-1.872zm45.072-3l-3.096.528v4.344h-1.872v-4.008l-6.624 1.176-.336-1.872 6.96-1.224V14.024h1.872v12.192l2.784-.504.312 1.872zm-7.872-1.968l-4.392-3.192 1.128-1.536 4.368 3.192-1.104 1.536zm1.296-4.488l-4.368-3.192 1.104-1.536 4.392 3.192-1.128 1.536zm-9.264-2.592h3.48v1.896h-3.48v12.12h-1.896v-12.12h-.216a78.388 78.388 0 0 1-.504 5.04 107.436 107.436 0 0 1-.516 3.444 49.125 49.125 0 0 1-.732 3.588l-1.824-.432c.256-1.104.48-2.236.672-3.396.192-1.16.356-2.26.492-3.3a76.75 76.75 0 0 0 .324-2.856l.192-2.088h-1.392v-1.896h3.504v-2.208h-3.168v-1.872h4.392c.256 0 .552-.02.888-.06.336-.04.676-.092 1.02-.156s.664-.128.96-.192a48.3 48.3 0 0 1 .684-.144l.432 1.824c-.016 0-.132.028-.348.084-.216.056-.484.112-.804.168-.32.056-.672.116-1.056.18-.384.064-.752.112-1.104.144v2.232zm2.16 3.048l1.296 10.584-1.872.24-1.296-10.584 1.872-.24zm21.36-7.704v2.472h2.496v1.872h-2.496v6.096l2.232-.864.672 1.776-2.904 1.104v3.96c0 .608-.208 1.12-.624 1.536-.416.416-.928.624-1.536.624h-2.544V30.56h2.544c.192 0 .288-.088.288-.264v-3.24l-2.616 1.008-.672-1.776 3.288-1.248v-6.816h-2.832v-1.872h2.832V13.88h1.872zm2.28 16.824c1.12-.464 2.14-.944 3.06-1.44.92-.496 1.764-1 2.532-1.512l-4.08-2.616 1.008-1.584 4.704 3c1.168-.944 2.068-1.796 2.7-2.556.632-.76 1.036-1.276 1.212-1.548v-.168h-9.6v-1.872h4.776V17.72h-5.472v-1.872h5.472V13.88h1.896v1.968h5.472v1.872h-5.472v2.688h2.928v-.384h1.896v2.952l-.12.216a9.964 9.964 0 0 1-.264.42c-.16.248-.4.568-.72.96a24.5 24.5 0 0 1-1.236 1.38c-.504.528-1.1 1.08-1.788 1.656l5.16 3.288-1.008 1.584-5.736-3.624c-.864.608-1.84 1.22-2.928 1.836a32.854 32.854 0 0 1-3.672 1.764l-.72-1.752z" fill="#999" fill-rule="evenodd"/></svg>