<svg width="200" height="50" xmlns="http://www.w3.org/2000/svg"><path d="M34.312 17.6l-4.656-1.944.72-1.752 4.656 1.944-.72 1.752zm-5.184 13.344c.928-.432 1.652-.912 2.172-1.44.52-.528.904-1.02 1.152-1.476.248-.456.396-.848.444-1.176.048-.328.072-.508.072-.54V20.36h-3.456v-1.896h5.352v7.848a4.886 4.886 0 0 1-.168 1.068c-.08.312-.2.664-.36 1.056-.16.392-.392.804-.696 1.236.224.176.576.384 1.056.624.48.24 1.088.36 1.824.36h13.968v1.896H36.52c-.512 0-.984-.052-1.416-.156a7.668 7.668 0 0 1-1.164-.372 5.657 5.657 0 0 1-1.548-.96c-.32.288-.68.564-1.08.828s-.856.516-1.368.756l-.816-1.704zM47.32 16.328H36.376v-1.896h13.152v2.544l-5.304 4.32v6.192c0 .672-.232 1.24-.696 1.704a2.317 2.317 0 0 1-1.704.696h-2.592v-1.896h2.592a.53.53 0 0 0 .372-.144.47.47 0 0 0 .156-.36v-7.104l4.968-4.056zm6.504-.888h9.24l-.552-1.128 1.68-.84.984 1.968h6.912v-.432h1.896v4.32h-1.896v-1.992H55.72v1.992h-1.896V15.44zm20.424 7.392h-8.856v7.44c0 .608-.212 1.12-.636 1.536a2.1 2.1 0 0 1-1.524.624h-2.568V30.56h2.568c.176 0 .264-.096.264-.288v-7.44h-9.864v-1.896h20.616v1.896zm14.688-8.952v4.104h7.008v-.528h1.896v8.832a2.1 2.1 0 0 1-.624 1.524 2.067 2.067 0 0 1-1.536.636h-6.744v3.912H87.04v-3.912h-8.904V17.984h8.904V13.88h1.896zM87.04 26.552v-6.696h-7.008v6.696h7.008zm1.896-6.696v6.696h6.744c.176 0 .264-.088.264-.264v-6.432h-7.008zm12.36 11.928c0-.016.072-.272.216-.768.144-.496.3-1.132.468-1.908.168-.776.32-1.648.456-2.616.136-.968.204-1.924.204-2.868v-9.168h1.896v9.168c0 1.024-.072 2.044-.216 3.06a40.52 40.52 0 0 1-.48 2.76 32.878 32.878 0 0 1-.744 2.916l-1.8-.576zm8.928-17.4V32.36h-1.896V14.384h1.896zm-2.856 16.68h-1.896V16.52h1.896v14.544zm3.768-16.752h11.352v1.896h-4.248l-.936 1.68h2.496v-.36h1.896v9.792H119.8v-7.536h-5.976v7.536h-1.896v-9.432h3.216l.936-1.68h-4.944v-1.896zm6.552 10.032c-.16.768-.408 1.5-.744 2.196a13.622 13.622 0 0 1-1.14 1.944c-.424.6-.864 1.14-1.32 1.62-.456.48-.876.896-1.26 1.248s-.704.628-.96.828c-.256.2-.4.308-.432.324l-1.08-1.536c0-.016.108-.104.324-.264.216-.16.488-.388.816-.684.328-.296.692-.652 1.092-1.068a13.03 13.03 0 0 0 2.16-3.048 7.76 7.76 0 0 0 .672-1.848v-3.312h1.896v3.528l-.024.072zm4.872 6.84l-1.416 1.272-4.152-4.656 1.416-1.248 4.152 4.632zm14.352-6.888h9.336v1.896h-5.304l5.112 4.824-1.296 1.368-5.688-5.376.768-.816h-2.928v6.312h-1.872v-6.312h-2.184c-.192.336-.46.756-.804 1.26-.344.504-.776 1.04-1.296 1.608-.52.568-1.14 1.152-1.86 1.752-.72.6-1.544 1.172-2.472 1.716l-.936-1.632c1.312-.768 2.38-1.58 3.204-2.436.824-.856 1.468-1.612 1.932-2.268h-4.92v-1.896h9.336v-1.104h-7.536v-8.664h15.048V14h1.896v7.032c0 .608-.212 1.12-.636 1.536a2.1 2.1 0 0 1-1.524.624h-5.376v1.104zm5.376-3c.176 0 .264-.088.264-.264v-1.176h-5.64v1.44h5.376zm.264-4.872h-5.64v1.536h5.64v-1.536zm-13.152 0v1.536h5.64v-1.536h-5.64zm5.64 4.872v-1.44h-5.64v1.44h5.64zm31.392-7.2h1.896v5.688c0 .608-.212 1.12-.636 1.536a2.1 2.1 0 0 1-1.524.624h-14.232v-7.416h14.496v-.432zm0 2.304h-12.6v3.648h12.336c.176 0 .264-.088.264-.264V16.4zm-16.8 7.296h8.136v-.432h1.896v6.816c0 .592-.212 1.1-.636 1.524a2.079 2.079 0 0 1-1.524.636h-7.872v-8.544zm1.872 6.648h6c.176 0 .264-.088.264-.264v-4.488h-6.264v4.752zm18.96-.264a2.1 2.1 0 0 1-.624 1.524 2.067 2.067 0 0 1-1.536.636h-7.776v-8.544h8.04v-.432h1.896v6.816zm-8.064.264h5.904c.176 0 .264-.088.264-.264v-4.488H162.4v4.752z" fill="#999" fill-rule="evenodd"/></svg>