<svg width="200" height="50" xmlns="http://www.w3.org/2000/svg"><path d="M34.312 17.6l-4.656-1.944.72-1.752 4.656 1.944-.72 1.752zm-5.184 13.344c.928-.432 1.652-.912 2.172-1.44.52-.528.904-1.02 1.152-1.476.248-.456.396-.848.444-1.176.048-.328.072-.508.072-.54V20.36h-3.456v-1.896h5.352v7.848a4.886 4.886 0 0 1-.168 1.068c-.08.312-.2.664-.36 1.056-.16.392-.392.804-.696 1.236.224.176.576.384 1.056.624.48.24 1.088.36 1.824.36h13.968v1.896H36.52c-.512 0-.984-.052-1.416-.156a7.668 7.668 0 0 1-1.164-.372 5.657 5.657 0 0 1-1.548-.96c-.32.288-.68.564-1.08.828s-.856.516-1.368.756l-.816-1.704zM47.32 16.328H36.376v-1.896h13.152v2.544l-5.304 4.32v6.192c0 .672-.232 1.24-.696 1.704a2.317 2.317 0 0 1-1.704.696h-2.592v-1.896h2.592a.53.53 0 0 0 .372-.144.47.47 0 0 0 .156-.36v-7.104l4.968-4.056zm6.504-.888h9.24l-.552-1.128 1.68-.84.984 1.968h6.912v-.432h1.896v4.32h-1.896v-1.992H55.72v1.992h-1.896V15.44zm20.424 7.392h-8.856v7.44c0 .608-.212 1.12-.636 1.536a2.1 2.1 0 0 1-1.524.624h-2.568V30.56h2.568c.176 0 .264-.096.264-.288v-7.44h-9.864v-1.896h20.616v1.896zm4.704-8.976L82.72 17l-1.2 1.464-3.792-3.144 1.224-1.464zm-1.224 6.504l1.224-1.464 3.768 3.144-1.2 1.464-3.792-3.144zm1.224 12.312l-1.656-.888 3.744-6.888 1.656.888-3.744 6.888zm8.232-18.408c-.064.16-.124.316-.18.468a4.62 4.62 0 0 1-.204.468h11.64v1.896H85.864c-.432.768-.812 1.376-1.14 1.824-.328.448-.508.688-.54.72l-.72-.6-.744-.576.276-.372c.184-.248.408-.588.672-1.02.264-.432.556-.944.876-1.536.32-.592.616-1.248.888-1.968l1.752.696zm9.888 10.68v3.12h1.2v1.896h-1.2v.456c0 .592-.212 1.1-.636 1.524a2.079 2.079 0 0 1-1.524.636H92.68V30.68h2.232c.176 0 .264-.088.264-.264v-.456H84.184l.552-5.016H83.68v-1.896h1.272l.552-4.848h9.672v-.432h1.896v5.28h1.44v1.896h-1.44zm-10.2-1.896h3.288l-.936-1.272 1.512-1.128 1.776 2.4h2.664v-2.952h-7.968l-.336 2.952zm8.304 1.896h-8.52l-.36 3.12h3.816l-1.152-1.56 1.512-1.128 1.992 2.688h2.712v-3.12zm15.072-7.968h-6.672v13.368h6.936v1.872h-8.808V15.104h8.544v1.872zm-6.456 11.568l.18-.36c.12-.24.276-.572.468-.996.192-.424.416-.924.672-1.5.256-.576.528-1.208.816-1.896l-2.016-5.16 1.776-.672 1.248 3.216c.384-1.04.736-2.12 1.056-3.24l1.824.528a48.773 48.773 0 0 1-.888 2.772c-.32.904-.64 1.764-.96 2.58l1.896 4.896-1.752.696-1.2-3.096a65.345 65.345 0 0 1-1.44 3.096l-1.68-.864zm17.064-4.992h1.896v6.816c0 .608-.208 1.12-.624 1.536-.416.416-.928.624-1.536.624h-4.8v-1.872h4.8c.176 0 .264-.096.264-.288V25.88h-9.408V15.776h3.096l1.152-1.944 1.608.96-.576.984h3.264l.024-.336h1.872l-.024 5.592c0 .608-.208 1.12-.624 1.536-.416.416-.928.624-1.536.624h-1.368v-1.896h1.368c.192 0 .288-.088.288-.264v-3.36h-6.648v6.336h7.512v-.456zm-6.336-4.296l1.416-1.224 2.376 2.736-1.44 1.224-2.352-2.736zm5.736 9.96h-9.912v-1.872h9.912v1.872zm16.656-4.92h9.336v1.896h-5.304l5.112 4.824-1.296 1.368-5.688-5.376.768-.816h-2.928v6.312h-1.872v-6.312h-2.184c-.192.336-.46.756-.804 1.26-.344.504-.776 1.04-1.296 1.608-.52.568-1.14 1.152-1.86 1.752-.72.6-1.544 1.172-2.472 1.716l-.936-1.632c1.312-.768 2.38-1.58 3.204-2.436.824-.856 1.468-1.612 1.932-2.268h-4.92v-1.896h9.336v-1.104h-7.536v-8.664h15.048V14h1.896v7.032c0 .608-.212 1.12-.636 1.536a2.1 2.1 0 0 1-1.524.624h-5.376v1.104zm5.376-3c.176 0 .264-.088.264-.264v-1.176h-5.64v1.44h5.376zm.264-4.872h-5.64v1.536h5.64v-1.536zm-13.152 0v1.536h5.64v-1.536h-5.64zm5.64 4.872v-1.44h-5.64v1.44h5.64zm31.392-7.2h1.896v5.688c0 .608-.212 1.12-.636 1.536a2.1 2.1 0 0 1-1.524.624h-14.232v-7.416h14.496v-.432zm0 2.304h-12.6v3.648h12.336c.176 0 .264-.088.264-.264V16.4zm-16.8 7.296h8.136v-.432h1.896v6.816c0 .592-.212 1.1-.636 1.524a2.079 2.079 0 0 1-1.524.636h-7.872v-8.544zm1.872 6.648h6c.176 0 .264-.088.264-.264v-4.488h-6.264v4.752zm18.96-.264a2.1 2.1 0 0 1-.624 1.524 2.067 2.067 0 0 1-1.536.636h-7.776v-8.544h8.04v-.432h1.896v6.816zm-8.064.264h5.904c.176 0 .264-.088.264-.264v-4.488H162.4v4.752z" fill="#999" fill-rule="evenodd"/></svg>