<svg width="144" height="144" xmlns="http://www.w3.org/2000/svg"><g fill="none" fill-rule="nonzero"><path d="M87.81 60.405S67.364 69.97 58 35.865c6.936-1.96 30.675-2.717 32.276 22.189-2.546-1.034-7.26-3.096-10.51-12.073-.082 3.096.812 5.425 1.788 8.623-3.221-1.757-8.566-4.242-14.191-11.683 1.687 4.035 8.423 13.623 20.447 17.484" fill="#B5DB00" opacity=".8"/><path d="M88.716 64.197H65.79c-3.69 0-3.901 2.936-2.79 4.29 5.174 5.208 14.044 7.174 14.502 19.139-.163 6.753-1.565 7.745-13.345 7.745-20.495 0-22.021 1.037-22.021-25.62 0-8.428.393-20.883 10.901-31.46 1.111-1.355.9-4.291-2.789-4.291H28.682C23.915 34 23 36.335 23 38.634v33.063c0 33.653 2.958 38.131 34.285 38.131 32.769 0 37.006-4.65 37.11-24.625h.003V68.83c0-2.298-.914-4.633-5.682-4.633" fill="#FFF"/><path d="M94.019 38.303c20.538 29.56 11.585 57.178-3.201 69.646-1.634 1.377-.64 2.35 1.392 1.556 30.69-11.997 34.375-51.891 22.646-73.059-.469-.846-1.582-2.446-4.704-2.446H95.51c-3.462 0-2.484 2.873-1.49 4.303" fill="#FFF"/></g></svg>