<svg height="144" viewBox="0 0 360 144" width="360" xmlns="http://www.w3.org/2000/svg"><g fill="none" fill-rule="evenodd"><g fill-rule="nonzero" transform="translate(23 34)"><path d="m64.81 26.405s-20.446 9.565-29.81-24.54c6.936-1.96 30.675-2.717 32.276 22.189-2.546-1.034-7.26-3.096-10.51-12.073-.082 3.096.812 5.425 1.788 8.623-3.221-1.757-8.566-4.242-14.191-11.683 1.687 4.035 8.423 13.623 20.447 17.484" fill="#b5db00" opacity=".8"/><g fill="#fff"><path d="m65.716 30.197h-22.926c-3.69 0-3.901 2.936-2.79 4.29 5.174 5.208 14.044 7.174 14.502 19.139-.163 6.753-1.565 7.745-13.345 7.745-20.495 0-22.021 1.037-22.021-25.62 0-8.428.393-20.883 10.901-31.46 1.111-1.355.9-4.291-2.789-4.291h-21.566c-4.767 0-5.682 2.335-5.682 4.634v33.063c0 33.653 2.958 38.131 34.285 38.131 32.769 0 37.006-4.65 37.11-24.625h.003v-16.373c0-2.298-.914-4.633-5.682-4.633"/><path d="m71.019 4.303c20.538 29.56 11.585 57.178-3.201 69.646-1.634 1.377-.64 2.35 1.392 1.556 30.69-11.997 34.375-51.891 22.646-73.059-.469-.846-1.582-2.446-4.704-2.446h-14.642c-3.462 0-2.484 2.873-1.49 4.303"/></g></g><g fill="#fff"><path d="m160.249935 43.7219251h23.742546v4.1390375h-9.544983v5.9197861h8.058076v4.0427807h-8.058076v6.6898396h4.892403c-.863365-1.9251337-1.774695-3.5614973-2.73399-5.0053476l3.597356-1.1550802c1.103189 1.5401069 2.062484 3.1764706 2.877884 5.0053476l-2.590096 1.1550802h4.892404v4.1390374h-26.428572v-4.1390374h10.887996v-6.6898396h-8.058076v-4.0427807h8.058076v-5.9197861h-9.592948zm32.040446-7.6524064v42.4973262h-4.604615v-1.828877h-31.081151v1.828877h-4.604615v-42.4973262zm-35.685766 36.3850268h31.081151v-32.053476h-31.081151zm47.293233-19.7326204c-1.486907 1.8770054-3.069743 3.7058824-4.796474 5.4385027l-1.343013-4.5240642c4.892404-5.5347593 8.537724-11.9839572 10.840032-19.3475935l4.172932 1.9251336c-1.151154 3.4652407-2.590096 6.737968-4.364791 9.8181819v32.631016h-4.508686zm7.29064-7.1229946h9.497019c.047965-.8181818.095929-1.5882353.095929-2.3582888v-8.855615h4.364792v8.855615c0 .7700535-.047965 1.5882353-.09593 2.3582888h15.732435v4.4278075h-9.592948v22.5721925c0 .7219251.335753 1.1069519 1.103189 1.1069519h3.741249c.383718 0 .767436-.2887701 1.151154-.7700535.335753-.5775401.575577-2.9358289.719471-7.026738l4.077003 1.2994652c-.383718 5.197861-.959295 8.2780749-1.630801 9.1925134-.767436.9144385-1.870625 1.3957219-3.213638 1.4919786h-6.043557c-2.877884 0-4.268861-1.4919786-4.268861-4.4759358v-23.3903743h-2.01452c-1.103189 12.657754-5.036297 22.1871657-11.84729 28.5401069l-3.357532-2.9358289c6.139487-5.6791443 9.784807-14.1978609 10.840031-25.604278h-9.257195zm20.145191-10.6363637c2.973814 2.0695188 5.515945 4.1390375 7.578429 6.2566845l-3.117708 3.1283423c-1.774696-2.0213904-4.268862-4.2352941-7.434535-6.5454546zm55.687063 6.1604279v11.1657754h-4.460721v-6.8342246h-11.559502c.8154 5.3903743 2.398237 10.2032085 4.796473 14.5347593 2.781955-2.0213904 5.180192-4.2352941 7.242676-6.6898396l3.501426 3.0802139c-2.350272 2.6951872-5.180192 5.1497327-8.441794 7.2673797 2.877884 4.0909091 6.523205 7.6524064 10.935961 10.6363637l-2.686026 4.2834224c-10.408348-7.6524064-16.787659-18.0481283-19.185896-31.1390374-1.870624 4.1390374-4.124967 7.7967914-6.763028 11.0213904v14.2459893c3.885144-1.1550802 7.434535-2.5508022 10.600208-4.0909091l.719471 4.2834224c-4.508686 2.0695188-9.928701 3.9946524-16.308012 5.7754011l-.959295-4.0909091c1.00726-.4812834 1.534872-1.3475936 1.534872-2.5026738v-9.0481283c-2.302307 2.0695187-4.844439 3.8983957-7.578429 5.486631l-2.302307-4.1390374c7.722323-4.6203209 13.382162-10.9251337 17.027482-18.9144385h-9.544983v6.8342246h-4.460721v-11.1657754h15.732435c.767436-2.2620321 1.438942-4.6203209 1.918589-7.0748664l4.508686.5775401c-.479647 2.2620321-1.055224 4.4278075-1.726731 6.4973263zm21.680062.3850267c2.877884 3.7540107 5.084262 7.026738 6.619134 9.8181818l-3.357532 2.3101604c-.671506-1.1550802-1.343013-2.3582887-2.062484-3.5133689-3.789214 1.7326203-8.154005 3.4652406-13.094374 5.2941176l-1.199118-4.0909091c1.247083-.5294118 1.870625-1.5882353 1.870625-3.1764706v-10.4438502c6.331345-1.1069519 11.319678-2.3582888 14.964998-3.7058824l2.446202 3.6096257c-3.165673 1.2513369-7.530464 2.4064171-13.190303 3.513369v8.1818181c2.014519-.7700534 4.029038-1.6363636 5.995592-2.5026738-.767436-1.0588235-1.582836-2.117647-2.350272-3.1764706zm13.094374-.4331551h-5.420016v-4.3315508h18.994037c-.09593 7.4117647-.527612 12.0802139-1.247083 13.9572193-.767436 1.7807486-2.542132 2.6951871-5.324086 2.7433155-.863366 0-1.822661-.0962567-2.877885-.2406417l-1.390977-4.2352942c1.438942.1443851 2.686025.2406417 3.741249.2406417 1.199119-.0481283 1.966555-.4812834 2.350273-1.2994652.191859-.9625668.335753-3.2245989.431682-6.8342246h-4.844438c-.575577 2.8877005-1.343013 5.2459893-2.254343 6.9786096-1.247083 2.1657754-3.069743 4.0909091-5.46798 5.8235294l-2.733991-3.5133689c1.91859-1.2994653 3.357532-2.7433155 4.316827-4.3315508.719471-1.3475936 1.295048-2.9839573 1.726731-4.9572193zm10.456313 14.0053476v14.8235294h-4.604615v-10.684492h-22.351569v11.2620321h-4.55665v-15.4010695zm-12.518797 14.0534759c6.331345 1.6363637 12.087114 3.6577541 17.267306 5.9679145l-2.494166 3.8983957c-5.56391-2.6951872-11.223749-4.8609626-17.075448-6.4010695zm-4.700545-7.7005347 4.460721.4812834c-.671506 4.6203209-2.73399 8.3262032-6.091522 11.0695187-2.973814 2.5026738-8.2979 4.4759358-15.876329 5.9197861l-1.72673-4.1390374c6.427275-1.0588235 11.079855-2.5989305 13.957739-4.6203209 2.82992-2.0695187 4.604615-4.9572192 5.276121-8.7112299z"/><path d="m162.851338 101.640884h2.33388v7.607735c-.192486.062615-.46918.133056-.830091.211326-.360911.078269-.777958.156537-1.251152.234806-.473195.07827-.990493.144798-1.55191.199586-.561417.054789-1.130846.082182-1.708304.082182-1.170956 0-2.237632-.187843-3.200062-.563536-.962429-.375692-1.788502-.923569-2.478243-1.643646-.689742-.720077-1.22308-1.604507-1.600032-2.653315-.376951-1.048808-.565424-2.254137-.565424-3.616022s.212533-2.5711273.637606-3.6277624.998512-1.944978 1.720334-2.6650553c.721823-.7200772 1.567946-1.2679539 2.538396-1.6436464.970449-.3756925 2.009055-.5635359 3.115849-.5635359.753903 0 1.423584.0469609 2.009062.140884s1.086736.2034984 1.503788.3287293c.417053.1252308.757909.2504597 1.022577.3756906.264668.1252308.445121.2191525.541364.2817679l-.74588 1.9019337c-.465174-.2974232-1.082723-.5439677-1.852667-.7396409-.769944-.1956731-1.555916-.2935082-2.357941-.2935082-.850146 0-1.624088.1487093-2.321849.4461326-.697761.2974232-1.291251.7278977-1.780486 1.2914364s-.870191 1.2483846-1.142879 2.054558c-.272688.8061735-.40903 1.7101696-.40903 2.7120166 0 .970539.116291 1.854968.348878 2.653315.232588.798346.585473 1.483192 1.058668 2.054558.473194.571366 1.058663 1.01358 1.756425 1.326657.697761.313077 1.519824.469614 2.466213.469614.673701 0 1.247139-.035221 1.720334-.105663.473194-.070443.81405-.136971 1.022576-.199586zm29.24167 8.359116c-1.090754 0-2.037128-.164363-2.839153-.493094s-1.459675-.778772-1.972971-1.350138c-.513295-.571366-.894251-1.248385-1.142879-2.031077-.248627-.782693-.372939-1.627988-.372939-2.535912v-10.2140884h2.333879v9.9558014c0 1.628.368926 2.809849 1.106789 3.54558.737862.735731 1.700277 1.103591 2.887274 1.103591.593498 0 1.134856-.090008 1.624091-.270028.489235-.180019.910292-.457871 1.263183-.833563.352891-.375693.625575-.857041.818061-1.444061.192486-.587019.288727-1.287519.288727-2.101519v-9.9558014h2.33388v10.2140884c0 .907924-.124312 1.753219-.37294 2.535912-.248627.782692-.633593 1.459711-1.154909 2.031077s-1.178966 1.021407-1.972971 1.350138c-.794004.328731-1.736369.493094-2.827122.493094zm26.715305-8.5c0-1.393193.212533-2.622002.637606-3.6864641.425073-1.064462 1.002522-1.9528049 1.732364-2.6650552.729843-.7122504 1.579976-1.2483868 2.550426-1.6084255.97045-.3600386 2.001036-.5400552 3.091789-.5400552 1.074713 0 2.089259.1800166 3.043668.5400552.954409.3600387 1.792512.8961751 2.514335 1.6084255.721822.7122503 1.295261 1.6005932 1.720334 2.6650552.425073 1.0644621.637606 2.2932711.637606 3.6864641s-.212533 2.622002-.637606 3.686464-.998512 1.952805-1.720334 2.665055c-.721823.712251-1.559926 1.248387-2.514335 1.608426-.954409.360038-1.968955.540055-3.043668.540055-1.090753 0-2.121339-.180017-3.091789-.540055-.97045-.360039-1.820583-.896175-2.550426-1.608426-.729842-.71225-1.307291-1.600593-1.732364-2.665055s-.637606-2.293271-.637606-3.686464zm2.454183 0c0 .986193.128322 1.882362.384969 2.688536.256648.806173.621564 1.491019 1.094759 2.054558.473194.563539 1.050643.997927 1.732364 1.303177s1.447643.457873 2.297789.457873 1.612058-.152623 2.285758-.457873c.673701-.30525 1.24714-.739638 1.720335-1.303177.473194-.563539.83811-1.248385 1.094758-2.054558.256647-.806174.384969-1.702343.384969-2.688536s-.128322-1.8823625-.384969-2.6885359c-.256648-.8061735-.621564-1.4910193-1.094758-2.054558-.473195-.5635388-1.046634-.9979267-1.720335-1.3031768-.6737-.3052502-1.435612-.4578729-2.285758-.4578729s-1.616068.1526227-2.297789.4578729c-.681721.3052501-1.25917.739638-1.732364 1.3031768-.473195.5635387-.838111 1.2483845-1.094759 2.054558-.256647.8061734-.384969 1.7023429-.384969 2.6885359zm36.965127 8.14779v-6.527624c-1.106794-1.674963-2.14941-3.3264194-3.12788-4.9544201-.97847-1.6280008-1.900784-3.2246699-2.766971-4.7900553h2.74291c.609539 1.283616 1.29125 2.5867798 2.045153 3.9095304s1.531855 2.5946071 2.33388 3.815608c.785984-1.2210009 1.555916-2.4928574 2.309819-3.815608s1.443634-2.6259144 2.069213-3.9095304h2.598547c-.866187 1.5653854-1.788501 3.1581411-2.766971 4.7783149-.97847 1.6201739-2.013067 3.2598905-3.10382 4.9191985v6.574586zm25.801002-8.14779c0-1.393193.212533-2.622002.637606-3.6864641.425073-1.064462 1.002522-1.9528049 1.732364-2.6650552.729843-.7122504 1.579976-1.2483868 2.550426-1.6084255.970449-.3600386 2.001036-.5400552 3.091789-.5400552 1.074713 0 2.089259.1800166 3.043668.5400552.954409.3600387 1.792512.8961751 2.514334 1.6084255.721823.7122503 1.295262 1.6005932 1.720335 2.6650552.425073 1.0644621.637606 2.2932711.637606 3.6864641s-.212533 2.622002-.637606 3.686464-.998512 1.952805-1.720335 2.665055c-.721822.712251-1.559925 1.248387-2.514334 1.608426-.954409.360038-1.968955.540055-3.043668.540055-1.090753 0-2.12134-.180017-3.091789-.540055-.97045-.360039-1.820583-.896175-2.550426-1.608426-.729842-.71225-1.307291-1.600593-1.732364-2.665055s-.637606-2.293271-.637606-3.686464zm2.454183 0c0 .986193.128322 1.882362.384969 2.688536.256648.806173.621564 1.491019 1.094758 2.054558.473195.563539 1.050644.997927 1.732365 1.303177s1.447643.457873 2.297789.457873 1.612058-.152623 2.285758-.457873c.673701-.30525 1.24714-.739638 1.720334-1.303177.473195-.563539.838111-1.248385 1.094759-2.054558.256647-.806174.384969-1.702343.384969-2.688536s-.128322-1.8823625-.384969-2.6885359c-.256648-.8061735-.621564-1.4910193-1.094759-2.054558-.473194-.5635388-1.046633-.9979267-1.720334-1.3031768-.6737-.3052502-1.435612-.4578729-2.285758-.4578729s-1.616068.1526227-2.297789.4578729c-.681721.3052501-1.25917.739638-1.732365 1.3031768-.473194.5635387-.83811 1.2483845-1.094758 2.054558-.256647.8061734-.384969 1.7023429-.384969 2.6885359zm40.18925 8.5c-1.090754 0-2.037128-.164363-2.839153-.493094s-1.459675-.778772-1.972971-1.350138c-.513295-.571366-.894251-1.248385-1.142879-2.031077-.248627-.782693-.372939-1.627988-.372939-2.535912v-10.2140884h2.333879v9.9558014c0 1.628.368926 2.809849 1.106789 3.54558.737862.735731 1.700277 1.103591 2.887274 1.103591.593498 0 1.134856-.090008 1.624091-.270028.489235-.180019.910292-.457871 1.263183-.833563.352891-.375693.625575-.857041.818061-1.444061.192486-.587019.288727-1.287519.288727-2.101519v-9.9558014h2.33388v10.2140884c0 .907924-.124312 1.753219-.37294 2.535912-.248627.782692-.633593 1.459711-1.154909 2.031077s-1.178966 1.021407-1.972971 1.350138c-.794004.328731-1.736369.493094-2.827122.493094z"/></g></g></svg>